<svg xmlns="http://www.w3.org/2000/svg" width="200" height="200" viewBox="0 0 200 200" fill="none">
  <defs>
    <linearGradient id="bg" x1="30" y1="20" x2="170" y2="180" gradientUnits="userSpaceOnUse">
      <stop stop-color="#A5B4FC"/>
      <stop offset="1" stop-color="#4338CA"/>
    </linearGradient>
  </defs>
  <circle cx="100" cy="100" r="100" fill="url(#bg)"/>
  <circle cx="100" cy="78" r="32" fill="#EEF2FF"/>
  <path d="M48 168c8-34 28-52 52-52s44 18 52 52" fill="#EEF2FF"/>
  <path d="M100 108l28 10v16c0 14-10 26-28 34-18-8-28-20-28-34v-16l28-10z" fill="#C7D2FE" opacity="0.95"/>
  <path d="M100 116l20 7v12c0 10-7 19-20 25-13-6-20-15-20-25v-12l20-7z" fill="#4F46E5" opacity="0.55"/>
</svg>
